<mxfile host="Electron" modified="2024-05-26T20:03:14.990Z" agent="Mozilla/5.0 (X11; Linux x86_64) AppleWebKit/537.36 (KHTML, like Gecko) draw.io/24.4.8 Chrome/124.0.6367.207 Electron/30.0.6 Safari/537.36" etag="wjcDFqbkFW2PlrLosWvP" version="24.4.8" type="device">
  <diagram name="Page-1" id="aZRYNLirz8_Lpj5FCU4y">
    <mxGraphModel dx="941" dy="581" grid="1" gridSize="10" guides="1" tooltips="1" connect="1" arrows="1" fold="1" page="1" pageScale="1" pageWidth="827" pageHeight="1169" math="0" shadow="0">
      <root>
        <mxCell id="0" />
        <mxCell id="1" parent="0" />
        <mxCell id="v3UX5knrtJ1DezZHEXDK-1" value="Machine locale" style="whiteSpace=wrap;html=1;aspect=fixed;" parent="1" vertex="1">
          <mxGeometry x="170" y="390" width="80" height="80" as="geometry" />
        </mxCell>
        <mxCell id="v3UX5knrtJ1DezZHEXDK-4" style="edgeStyle=orthogonalEdgeStyle;rounded=0;orthogonalLoop=1;jettySize=auto;html=1;entryX=1;entryY=0.25;entryDx=0;entryDy=0;shape=link;exitX=0;exitY=0.75;exitDx=0;exitDy=0;" parent="1" source="cT3fw7MDJUnm8HyOiSiD-2" target="v3UX5knrtJ1DezZHEXDK-1" edge="1">
          <mxGeometry relative="1" as="geometry" />
        </mxCell>
        <mxCell id="v3UX5knrtJ1DezZHEXDK-5" value="3389" style="edgeLabel;html=1;align=center;verticalAlign=middle;resizable=0;points=[];" parent="v3UX5knrtJ1DezZHEXDK-4" vertex="1" connectable="0">
          <mxGeometry x="0.5524" y="-1" relative="1" as="geometry">
            <mxPoint x="-10" y="-11" as="offset" />
          </mxGeometry>
        </mxCell>
        <mxCell id="v3UX5knrtJ1DezZHEXDK-2" value="Serveur&lt;div&gt;SSH&lt;/div&gt;" style="whiteSpace=wrap;html=1;aspect=fixed;" parent="1" vertex="1">
          <mxGeometry x="470" y="390" width="80" height="80" as="geometry" />
        </mxCell>
        <mxCell id="v3UX5knrtJ1DezZHEXDK-3" value="Machine terminale" style="whiteSpace=wrap;html=1;aspect=fixed;" parent="1" vertex="1">
          <mxGeometry x="620" y="390" width="80" height="80" as="geometry" />
        </mxCell>
        <mxCell id="v3UX5knrtJ1DezZHEXDK-10" value="ssh -L 3389:192.168.1.2:3389 username@IP_Publique_Box" style="text;align=center;verticalAlign=middle;rounded=0;fontSize=10;fillColor=none;whiteSpace=wrap;fontStyle=1" parent="1" vertex="1">
          <mxGeometry x="297.5" y="504" width="305" height="30" as="geometry" />
        </mxCell>
        <mxCell id="I6RIU7612aD--7Qn7VhY-1" value="Port&lt;div style=&quot;font-size: 6px;&quot;&gt;dynamique&lt;/div&gt;" style="edgeLabel;html=1;align=center;verticalAlign=middle;resizable=0;points=[];fontSize=6;" parent="1" vertex="1" connectable="0">
          <mxGeometry x="567" y="398" as="geometry" />
        </mxCell>
        <mxCell id="I6RIU7612aD--7Qn7VhY-2" style="edgeStyle=orthogonalEdgeStyle;rounded=0;orthogonalLoop=1;jettySize=auto;html=1;shape=link;exitX=1;exitY=0.25;exitDx=0;exitDy=0;" parent="1" edge="1">
          <mxGeometry relative="1" as="geometry">
            <mxPoint x="558" y="410" as="sourcePoint" />
            <mxPoint x="470" y="450" as="targetPoint" />
            <Array as="points">
              <mxPoint x="478" y="410" />
              <mxPoint x="478" y="450" />
            </Array>
          </mxGeometry>
        </mxCell>
        <mxCell id="I6RIU7612aD--7Qn7VhY-6" style="edgeStyle=orthogonalEdgeStyle;rounded=0;orthogonalLoop=1;jettySize=auto;html=1;entryX=1;entryY=0.25;entryDx=0;entryDy=0;shape=link;exitX=0;exitY=0.75;exitDx=0;exitDy=0;" parent="1" source="v3UX5knrtJ1DezZHEXDK-3" target="v3UX5knrtJ1DezZHEXDK-2" edge="1">
          <mxGeometry relative="1" as="geometry">
            <mxPoint x="675" y="490" as="sourcePoint" />
            <mxPoint x="595" y="450" as="targetPoint" />
          </mxGeometry>
        </mxCell>
        <mxCell id="I6RIU7612aD--7Qn7VhY-8" value="3389" style="edgeLabel;html=1;align=center;verticalAlign=middle;resizable=0;points=[];" parent="I6RIU7612aD--7Qn7VhY-6" vertex="1" connectable="0">
          <mxGeometry x="-0.8" relative="1" as="geometry">
            <mxPoint x="-4" y="-12" as="offset" />
          </mxGeometry>
        </mxCell>
        <mxCell id="cT3fw7MDJUnm8HyOiSiD-3" value="" style="edgeStyle=orthogonalEdgeStyle;rounded=0;orthogonalLoop=1;jettySize=auto;html=1;entryX=1;entryY=0.75;entryDx=0;entryDy=0;shape=link;exitX=0;exitY=0.75;exitDx=0;exitDy=0;" parent="1" source="v3UX5knrtJ1DezZHEXDK-2" target="cT3fw7MDJUnm8HyOiSiD-2" edge="1">
          <mxGeometry relative="1" as="geometry">
            <mxPoint x="460" y="450" as="sourcePoint" />
            <mxPoint x="250" y="410" as="targetPoint" />
          </mxGeometry>
        </mxCell>
        <mxCell id="cT3fw7MDJUnm8HyOiSiD-5" value="22" style="edgeLabel;html=1;align=center;verticalAlign=middle;resizable=0;points=[];" parent="cT3fw7MDJUnm8HyOiSiD-3" vertex="1" connectable="0">
          <mxGeometry x="-0.8" relative="1" as="geometry">
            <mxPoint x="-6" y="-10" as="offset" />
          </mxGeometry>
        </mxCell>
        <mxCell id="cT3fw7MDJUnm8HyOiSiD-2" value="Box" style="whiteSpace=wrap;html=1;aspect=fixed;" parent="1" vertex="1">
          <mxGeometry x="320" y="390" width="80" height="80" as="geometry" />
        </mxCell>
        <mxCell id="cT3fw7MDJUnm8HyOiSiD-6" value="22" style="edgeLabel;html=1;align=center;verticalAlign=middle;resizable=0;points=[];" parent="1" vertex="1" connectable="0">
          <mxGeometry x="460.00047619047615" y="447.0000000000001" as="geometry">
            <mxPoint x="-32" y="-7" as="offset" />
          </mxGeometry>
        </mxCell>
        <mxCell id="cT3fw7MDJUnm8HyOiSiD-7" value="22" style="edgeLabel;html=1;align=center;verticalAlign=middle;resizable=0;points=[];" parent="1" vertex="1" connectable="0">
          <mxGeometry x="342.00047619047615" y="447.0000000000001" as="geometry">
            <mxPoint x="-32" y="-7" as="offset" />
          </mxGeometry>
        </mxCell>
        <mxCell id="cT3fw7MDJUnm8HyOiSiD-11" style="edgeStyle=orthogonalEdgeStyle;rounded=0;orthogonalLoop=1;jettySize=auto;html=1;entryX=1;entryY=0.75;entryDx=0;entryDy=0;shape=link;exitX=0;exitY=0.75;exitDx=0;exitDy=0;" parent="1" source="cT3fw7MDJUnm8HyOiSiD-2" target="cT3fw7MDJUnm8HyOiSiD-2" edge="1">
          <mxGeometry relative="1" as="geometry">
            <mxPoint x="350" y="460" as="sourcePoint" />
            <mxPoint x="260" y="420" as="targetPoint" />
            <Array as="points">
              <mxPoint x="380" y="450" />
              <mxPoint x="380" y="450" />
            </Array>
          </mxGeometry>
        </mxCell>
        <mxCell id="cT3fw7MDJUnm8HyOiSiD-13" value="&lt;span style=&quot;color: rgb(0, 0, 0); font-family: Helvetica; font-size: 7px; font-style: normal; font-variant-ligatures: normal; font-variant-caps: normal; font-weight: 400; letter-spacing: normal; orphans: 2; text-indent: 0px; text-transform: none; widows: 2; word-spacing: 0px; -webkit-text-stroke-width: 0px; white-space: normal; background-color: rgb(251, 251, 251); text-decoration-thickness: initial; text-decoration-style: initial; text-decoration-color: initial; float: none; display: inline !important;&quot;&gt;@IP privée : 192.168.1.3&lt;/span&gt;" style="text;whiteSpace=wrap;html=1;fontSize=7;align=center;" parent="1" vertex="1">
          <mxGeometry x="452.5" y="470" width="115" height="20" as="geometry" />
        </mxCell>
        <mxCell id="cT3fw7MDJUnm8HyOiSiD-14" value="&lt;span style=&quot;color: rgb(0, 0, 0); font-family: Helvetica; font-size: 7px; font-style: normal; font-variant-ligatures: normal; font-variant-caps: normal; font-weight: 400; letter-spacing: normal; orphans: 2; text-indent: 0px; text-transform: none; widows: 2; word-spacing: 0px; -webkit-text-stroke-width: 0px; white-space: normal; background-color: rgb(251, 251, 251); text-decoration-thickness: initial; text-decoration-style: initial; text-decoration-color: initial; float: none; display: inline !important;&quot;&gt;@IP privée : 192.168.1.2&lt;/span&gt;" style="text;whiteSpace=wrap;html=1;fontSize=7;align=center;" parent="1" vertex="1">
          <mxGeometry x="602.5" y="470" width="115" height="20" as="geometry" />
        </mxCell>
        <mxCell id="cT3fw7MDJUnm8HyOiSiD-15" value="&lt;span style=&quot;color: rgb(0, 0, 0); font-family: Helvetica; font-size: 7px; font-style: normal; font-variant-ligatures: normal; font-variant-caps: normal; font-weight: 400; letter-spacing: normal; orphans: 2; text-indent: 0px; text-transform: none; widows: 2; word-spacing: 0px; -webkit-text-stroke-width: 0px; white-space: normal; background-color: rgb(251, 251, 251); text-decoration-thickness: initial; text-decoration-style: initial; text-decoration-color: initial; float: none; display: inline !important;&quot;&gt;@IP publique : IP_Publique_Box&lt;/span&gt;" style="text;whiteSpace=wrap;html=1;fontSize=7;align=center;" parent="1" vertex="1">
          <mxGeometry x="302.5" y="470" width="115" height="20" as="geometry" />
        </mxCell>
      </root>
    </mxGraphModel>
  </diagram>
</mxfile>
